<svg xmlns="http://www.w3.org/2000/svg" width="300" height="300" viewBox="0 0 300 300">
  <defs>
    <radialGradient id="red" cx="50%" cy="48%" r="60%">
      <stop offset="0" stop-color="#c45a52" stop-opacity="0.48"/>
      <stop offset="1" stop-color="#1a0809" stop-opacity="0"/>
    </radialGradient>
  </defs>
  <rect width="300" height="300" fill="none"/>
  <circle cx="150" cy="150" r="132" fill="url(#red)"/>
  <path d="M150 44 C121 46 101 66 106 94 C111 123 127 140 150 140 C174 140 191 121 194 92 C197 65 178 46 150 44 Z" fill="#120b0c"/>
  <path d="M86 178 C104 139 124 134 150 136 C179 138 199 152 214 192 C228 229 230 264 230 292 H70 C70 260 72 218 86 178 Z" fill="#1b1011"/>
  <g stroke="#c45a52" fill="none" stroke-width="5" opacity="0.72">
    <path d="M120 78 L84 42"/>
    <path d="M181 78 L220 42"/>
    <path d="M96 178 C132 205 168 205 206 178"/>
    <path d="M150 140 C138 196 132 246 126 292"/>
    <path d="M160 140 C176 196 184 246 196 292"/>
  </g>
</svg>
