<svg xmlns="http://www.w3.org/2000/svg" width="420" height="520" viewBox="0 0 420 520">
  <defs>
    <radialGradient id="aura" cx="50%" cy="45%" r="56%">
      <stop offset="0" stop-color="#c66d63" stop-opacity="0.38"/>
      <stop offset="0.52" stop-color="#6f8d92" stop-opacity="0.16"/>
      <stop offset="1" stop-color="#000000" stop-opacity="0"/>
    </radialGradient>
    <linearGradient id="body" x1="0" y1="0" x2="1" y2="1">
      <stop offset="0" stop-color="#29393d"/>
      <stop offset="0.55" stop-color="#121719"/>
      <stop offset="1" stop-color="#3c2524"/>
    </linearGradient>
  </defs>
  <rect width="420" height="520" fill="none"/>
  <circle cx="210" cy="245" r="205" fill="url(#aura)"/>
  <path d="M211 68 C178 70 153 95 158 130 C163 163 181 187 211 188 C242 187 262 160 262 128 C262 94 243 70 211 68 Z" fill="#111517"/>
  <path d="M121 268 C143 210 173 188 211 188 C253 188 284 213 304 272 C326 337 347 420 360 506 H62 C76 420 96 335 121 268 Z" fill="url(#body)"/>
  <path d="M112 294 C68 327 42 384 31 466 C55 448 78 445 100 456 C105 390 119 340 143 305 Z" fill="#151b1d"/>
  <path d="M309 294 C355 329 380 386 389 466 C365 448 342 445 320 456 C316 391 302 341 278 305 Z" fill="#151b1d"/>
  <g fill="none" stroke="#d0bc75" stroke-width="3" opacity="0.42">
    <path d="M158 240 C188 269 235 269 263 239"/>
    <path d="M138 326 C184 354 239 354 286 326"/>
  </g>
  <g fill="none" stroke="#b8615d" stroke-width="2" opacity="0.58">
    <path d="M180 112 L155 82"/>
    <path d="M239 111 L268 80"/>
    <path d="M209 188 C199 276 199 382 185 506"/>
    <path d="M221 190 C240 288 248 395 269 506"/>
  </g>
</svg>
